<svg width="150" viewBox="0 0 543 83" fill="current" xmlns="http://www.w3.org/2000/svg">
	<path d="M116.54 45.6C116.54 42.4467 117.127 39.6783 118.3 37.295C119.51 34.9117 121.142 33.0783 123.195 31.795C125.248 30.5117 127.54 29.87 130.07 29.87C132.087 29.87 133.92 30.2917 135.57 31.135C137.257 31.9783 138.577 33.115 139.53 34.545V20.3H148.935V61H139.53V56.6C138.65 58.0667 137.385 59.24 135.735 60.12C134.122 61 132.233 61.44 130.07 61.44C127.54 61.44 125.248 60.7983 123.195 59.515C121.142 58.195 119.51 56.3433 118.3 53.96C117.127 51.54 116.54 48.7533 116.54 45.6ZM139.53 45.655C139.53 43.3083 138.87 41.4567 137.55 40.1C136.267 38.7433 134.69 38.065 132.82 38.065C130.95 38.065 129.355 38.7433 128.035 40.1C126.752 41.42 126.11 43.2533 126.11 45.6C126.11 47.9467 126.752 49.8167 128.035 51.21C129.355 52.5667 130.95 53.245 132.82 53.245C134.69 53.245 136.267 52.5667 137.55 51.21C138.87 49.8533 139.53 48.0017 139.53 45.655ZM184.669 45.16C184.669 46.04 184.614 46.9567 184.504 47.91H163.219C163.366 49.8167 163.971 51.2833 165.034 52.31C166.134 53.3 167.472 53.795 169.049 53.795C171.396 53.795 173.027 52.805 173.944 50.825H183.954C183.441 52.8417 182.506 54.6567 181.149 56.27C179.829 57.8833 178.161 59.1483 176.144 60.065C174.127 60.9817 171.872 61.44 169.379 61.44C166.372 61.44 163.696 60.7983 161.349 59.515C159.002 58.2317 157.169 56.3983 155.849 54.015C154.529 51.6317 153.869 48.845 153.869 45.655C153.869 42.465 154.511 39.6783 155.794 37.295C157.114 34.9117 158.947 33.0783 161.294 31.795C163.641 30.5117 166.336 29.87 169.379 29.87C172.349 29.87 174.989 30.4933 177.299 31.74C179.609 32.9867 181.406 34.765 182.689 37.075C184.009 39.385 184.669 42.08 184.669 45.16ZM175.044 42.685C175.044 41.0717 174.494 39.7883 173.394 38.835C172.294 37.8817 170.919 37.405 169.269 37.405C167.692 37.405 166.354 37.8633 165.254 38.78C164.191 39.6967 163.531 40.9983 163.274 42.685H175.044ZM203.436 52.2L210.091 30.31H220.101L209.211 61H197.606L186.716 30.31H196.781L203.436 52.2ZM222.464 41.64C222.464 37.8267 223.289 34.435 224.939 31.465C226.589 28.4583 228.881 26.13 231.814 24.48C234.784 22.7933 238.139 21.95 241.879 21.95C246.463 21.95 250.386 23.16 253.649 25.58C256.913 28 259.094 31.3 260.194 35.48H249.854C249.084 33.8667 247.984 32.6383 246.554 31.795C245.161 30.9517 243.566 30.53 241.769 30.53C238.873 30.53 236.526 31.5383 234.729 33.555C232.933 35.5717 232.034 38.2667 232.034 41.64C232.034 45.0133 232.933 47.7083 234.729 49.725C236.526 51.7417 238.873 52.75 241.769 52.75C243.566 52.75 245.161 52.3283 246.554 51.485C247.984 50.6417 249.084 49.4133 249.854 47.8H260.194C259.094 51.98 256.913 55.28 253.649 57.7C250.386 60.0833 246.463 61.275 241.879 61.275C238.139 61.275 234.784 60.45 231.814 58.8C228.881 57.1133 226.589 54.785 224.939 51.815C223.289 48.845 222.464 45.4533 222.464 41.64ZM284.819 29.98C288.339 29.98 291.162 31.1533 293.289 33.5C295.416 35.81 296.479 39 296.479 43.07V61H287.129V44.335C287.129 42.2817 286.597 40.6867 285.534 39.55C284.471 38.4133 283.041 37.845 281.244 37.845C279.447 37.845 278.017 38.4133 276.954 39.55C275.891 40.6867 275.359 42.2817 275.359 44.335V61H265.954V20.3H275.359V34.435C276.312 33.0783 277.614 31.9967 279.264 31.19C280.914 30.3833 282.766 29.98 284.819 29.98ZM301.144 45.6C301.144 42.4467 301.731 39.6783 302.904 37.295C304.114 34.9117 305.746 33.0783 307.799 31.795C309.853 30.5117 312.144 29.87 314.674 29.87C316.838 29.87 318.726 30.31 320.339 31.19C321.989 32.07 323.254 33.225 324.134 34.655V30.31H333.539V61H324.134V56.655C323.218 58.085 321.934 59.24 320.284 60.12C318.671 61 316.783 61.44 314.619 61.44C312.126 61.44 309.853 60.7983 307.799 59.515C305.746 58.195 304.114 56.3433 302.904 53.96C301.731 51.54 301.144 48.7533 301.144 45.6ZM324.134 45.655C324.134 43.3083 323.474 41.4567 322.154 40.1C320.871 38.7433 319.294 38.065 317.424 38.065C315.554 38.065 313.959 38.7433 312.639 40.1C311.356 41.42 310.714 43.2533 310.714 45.6C310.714 47.9467 311.356 49.8167 312.639 51.21C313.959 52.5667 315.554 53.245 317.424 53.245C319.294 53.245 320.871 52.5667 322.154 51.21C323.474 49.8533 324.134 48.0017 324.134 45.655ZM349.749 20.3V61H340.344V20.3H349.749ZM365.969 20.3V61H356.564V20.3H365.969ZM401.715 45.16C401.715 46.04 401.66 46.9567 401.55 47.91H380.265C380.412 49.8167 381.017 51.2833 382.08 52.31C383.18 53.3 384.518 53.795 386.095 53.795C388.442 53.795 390.073 52.805 390.99 50.825H401C400.487 52.8417 399.552 54.6567 398.195 56.27C396.875 57.8833 395.207 59.1483 393.19 60.065C391.173 60.9817 388.918 61.44 386.425 61.44C383.418 61.44 380.742 60.7983 378.395 59.515C376.048 58.2317 374.215 56.3983 372.895 54.015C371.575 51.6317 370.915 48.845 370.915 45.655C370.915 42.465 371.557 39.6783 372.84 37.295C374.16 34.9117 375.993 33.0783 378.34 31.795C380.687 30.5117 383.382 29.87 386.425 29.87C389.395 29.87 392.035 30.4933 394.345 31.74C396.655 32.9867 398.452 34.765 399.735 37.075C401.055 39.385 401.715 42.08 401.715 45.16ZM392.09 42.685C392.09 41.0717 391.54 39.7883 390.44 38.835C389.34 37.8817 387.965 37.405 386.315 37.405C384.738 37.405 383.4 37.8633 382.3 38.78C381.237 39.6967 380.577 40.9983 380.32 42.685H392.09ZM425.377 29.98C428.97 29.98 431.83 31.1533 433.957 33.5C436.12 35.81 437.202 39 437.202 43.07V61H427.852V44.335C427.852 42.2817 427.32 40.6867 426.257 39.55C425.193 38.4133 423.763 37.845 421.967 37.845C420.17 37.845 418.74 38.4133 417.677 39.55C416.613 40.6867 416.082 42.2817 416.082 44.335V61H406.677V30.31H416.082V34.38C417.035 33.0233 418.318 31.96 419.932 31.19C421.545 30.3833 423.36 29.98 425.377 29.98ZM455.397 29.87C457.56 29.87 459.449 30.31 461.062 31.19C462.712 32.07 463.977 33.225 464.857 34.655V30.31H474.262V60.945C474.262 63.7683 473.694 66.3167 472.557 68.59C471.457 70.9 469.752 72.7333 467.442 74.09C465.169 75.4467 462.327 76.125 458.917 76.125C454.37 76.125 450.685 75.0433 447.862 72.88C445.039 70.7533 443.425 67.8567 443.022 64.19H452.317C452.61 65.3633 453.307 66.28 454.407 66.94C455.507 67.6367 456.864 67.985 458.477 67.985C460.42 67.985 461.96 67.4167 463.097 66.28C464.27 65.18 464.857 63.4017 464.857 60.945V56.6C463.94 58.03 462.675 59.2033 461.062 60.12C459.449 61 457.56 61.44 455.397 61.44C452.867 61.44 450.575 60.7983 448.522 59.515C446.469 58.195 444.837 56.3433 443.627 53.96C442.454 51.54 441.867 48.7533 441.867 45.6C441.867 42.4467 442.454 39.6783 443.627 37.295C444.837 34.9117 446.469 33.0783 448.522 31.795C450.575 30.5117 452.867 29.87 455.397 29.87ZM464.857 45.655C464.857 43.3083 464.197 41.4567 462.877 40.1C461.594 38.7433 460.017 38.065 458.147 38.065C456.277 38.065 454.682 38.7433 453.362 40.1C452.079 41.42 451.437 43.2533 451.437 45.6C451.437 47.9467 452.079 49.8167 453.362 51.21C454.682 52.5667 456.277 53.245 458.147 53.245C460.017 53.245 461.594 52.5667 462.877 51.21C464.197 49.8533 464.857 48.0017 464.857 45.655ZM509.996 45.16C509.996 46.04 509.941 46.9567 509.831 47.91H488.546C488.693 49.8167 489.298 51.2833 490.361 52.31C491.461 53.3 492.8 53.795 494.376 53.795C496.723 53.795 498.355 52.805 499.271 50.825H509.281C508.768 52.8417 507.833 54.6567 506.476 56.27C505.156 57.8833 503.488 59.1483 501.471 60.065C499.455 60.9817 497.2 61.44 494.706 61.44C491.7 61.44 489.023 60.7983 486.676 59.515C484.33 58.2317 482.496 56.3983 481.176 54.015C479.856 51.6317 479.196 48.845 479.196 45.655C479.196 42.465 479.838 39.6783 481.121 37.295C482.441 34.9117 484.275 33.0783 486.621 31.795C488.968 30.5117 491.663 29.87 494.706 29.87C497.676 29.87 500.316 30.4933 502.626 31.74C504.936 32.9867 506.733 34.765 508.016 37.075C509.336 39.385 509.996 42.08 509.996 45.16ZM500.371 42.685C500.371 41.0717 499.821 39.7883 498.721 38.835C497.621 37.8817 496.246 37.405 494.596 37.405C493.02 37.405 491.681 37.8633 490.581 38.78C489.518 39.6967 488.858 40.9983 488.601 42.685H500.371ZM527.443 61.44C524.766 61.44 522.383 60.9817 520.293 60.065C518.203 59.1483 516.553 57.9017 515.343 56.325C514.133 54.7117 513.455 52.915 513.308 50.935H522.603C522.713 51.9983 523.208 52.86 524.088 53.52C524.968 54.18 526.05 54.51 527.333 54.51C528.506 54.51 529.405 54.29 530.028 53.85C530.688 53.3733 531.018 52.7683 531.018 52.035C531.018 51.155 530.56 50.5133 529.643 50.11C528.726 49.67 527.241 49.1933 525.188 48.68C522.988 48.1667 521.155 47.635 519.688 47.085C518.221 46.4983 516.956 45.6 515.893 44.39C514.83 43.1433 514.298 41.475 514.298 39.385C514.298 37.625 514.775 36.03 515.728 34.6C516.718 33.1333 518.148 31.9783 520.018 31.135C521.925 30.2917 524.18 29.87 526.783 29.87C530.633 29.87 533.658 30.8233 535.858 32.73C538.095 34.6367 539.378 37.1667 539.708 40.32H531.018C530.871 39.2567 530.395 38.4133 529.588 37.79C528.818 37.1667 527.791 36.855 526.508 36.855C525.408 36.855 524.565 37.075 523.978 37.515C523.391 37.9183 523.098 38.4867 523.098 39.22C523.098 40.1 523.556 40.76 524.473 41.2C525.426 41.64 526.893 42.08 528.873 42.52C531.146 43.1067 532.998 43.6933 534.428 44.28C535.858 44.83 537.105 45.7467 538.168 47.03C539.268 48.2767 539.836 49.9633 539.873 52.09C539.873 53.8867 539.36 55.5 538.333 56.93C537.343 58.3233 535.895 59.4233 533.988 60.23C532.118 61.0367 529.936 61.44 527.443 61.44Z" fill="current">
	</path>
	<path fill-rule="evenodd" clip-rule="evenodd" d="M11.79 57.2313L32.7059 69.3071C36.7786 71.6585 41.9862 70.2631 44.3376 66.1904C46.6889 62.1178 45.2935 56.9101 41.2209 54.5588L27.6957 46.75L15.4513 55.3244C14.2916 56.1365 13.0603 56.7703 11.79 57.2313Z" fill="#F0402C">
	</path>
	<path fill-rule="evenodd" clip-rule="evenodd" d="M3.63141 35.078L31.5308 15.5409C35.3829 12.8433 40.6924 13.7793 43.3899 17.6314C44.0643 18.5944 44.5116 19.6485 44.743 20.7302C45.1271 22.5258 44.9163 24.3973 44.1617 26.0536C43.5528 27.3903 42.5896 28.5869 41.2994 29.4904L13.4 49.0276C9.54788 51.7251 4.23837 50.7891 1.54086 46.937C0.499002 45.4493 -0.000839703 43.7441 1.05885e-06 42.0559C0.00136623 39.3733 1.26712 36.7336 3.63141 35.078Z" fill="#F0402C">
	</path>
	<path fill-rule="evenodd" clip-rule="evenodd" d="M87.3994 27.2184L66.4835 15.1426C62.4109 12.7912 57.2032 14.1866 54.8519 18.2593C52.5005 22.3319 53.8959 27.5396 57.9686 29.8909L71.4938 37.6997L83.7382 29.1253C84.8979 28.3132 86.1292 27.6794 87.3994 27.2184Z" fill="#F0402C">
	</path>
	<path fill-rule="evenodd" clip-rule="evenodd" d="M95.558 49.3712L67.6587 68.9084C63.8066 71.6059 58.4971 70.6699 55.7995 66.8178C55.1252 65.8548 54.6779 64.8007 54.4465 63.719C54.0623 61.9234 54.2732 60.0519 55.0277 58.3956C55.6367 57.0589 56.5998 55.8623 57.8901 54.9588L85.7895 35.4216C89.6416 32.7241 94.9511 33.6601 97.6486 37.5122C98.6905 39 99.1903 40.7052 99.1895 42.3933C99.1881 45.076 97.9223 47.7156 95.558 49.3712Z" fill="#F0402C">
	</path>
</svg>
